<svg xmlns="http://www.w3.org/2000/svg" width="24" height="24" viewBox="0 0 24 24" stroke-width="2" stroke="white" fill="none" stroke-linecap="round" stroke-linejoin="round">
    <path d="M12 0C5.37 0 0 5.37 0 12c0 5.3 3.438 9.814 8.206 11.388.6.11.793-.258.793-.577 0-.285-.01-1.04-.015-2.04-3.338.724-4.042-1.527-4.042-1.527-.547-1.387-1.333-1.756-1.333-1.756-1.09-.744.083-.729.083-.729 1.206.085 1.84 1.237 1.84 1.237 1.07 1.835 2.808 1.305 3.496.998.108-.775.42-1.306.764-1.602-2.68-.306-5.5-1.34-5.5-5.93 0-1.31.465-2.378 1.236-3.22-.125-.308-.536-1.526.117-3.176 0 0 1.005-.322 3.3 1.23.957-.267 1.98-.4 3-.405 1.02.005 2.043.138 3 .405 2.29-1.552 3.295-1.23 3.295-1.23.654 1.65.244 2.868.12 3.176.772.842 1.235 1.91 1.235 3.22 0 4.6-2.825 5.62-5.51 5.92.43.37.82 1.102.82 2.22 0 1.605-.015 2.896-.015 3.286 0 .32.19.69.8.57 4.765-1.574 8.2-6.087 8.2-11.387 0-6.63-5.37-12-12-12" fill="#000"/>
</svg>
